G04 #@! TF.GenerationSoftware,KiCad,Pcbnew,9.0.6*
G04 #@! TF.CreationDate,2026-03-15T18:53:08+03:00*
G04 #@! TF.ProjectId,StaircaseLight_controller,53746169-7263-4617-9365-4c696768745f,rev?*
G04 #@! TF.SameCoordinates,Original*
G04 #@! TF.FileFunction,Soldermask,Bot*
G04 #@! TF.FilePolarity,Negative*
%FSLAX46Y46*%
G04 Gerber Fmt 4.6, Leading zero omitted, Abs format (unit mm)*
G04 Created by KiCad (PCBNEW 9.0.6) date 2026-03-15 18:53:08*
%MOMM*%
%LPD*%
G01*
G04 APERTURE LIST*
G04 Aperture macros list*
%AMRoundRect*
0 Rectangle with rounded corners*
0 $1 Rounding radius*
0 $2 $3 $4 $5 $6 $7 $8 $9 X,Y pos of 4 corners*
0 Add a 4 corners polygon primitive as box body*
4,1,4,$2,$3,$4,$5,$6,$7,$8,$9,$2,$3,0*
0 Add four circle primitives for the rounded corners*
1,1,$1+$1,$2,$3*
1,1,$1+$1,$4,$5*
1,1,$1+$1,$6,$7*
1,1,$1+$1,$8,$9*
0 Add four rect primitives between the rounded corners*
20,1,$1+$1,$2,$3,$4,$5,0*
20,1,$1+$1,$4,$5,$6,$7,0*
20,1,$1+$1,$6,$7,$8,$9,0*
20,1,$1+$1,$8,$9,$2,$3,0*%
%AMFreePoly0*
4,1,37,0.603843,0.796157,0.639018,0.796157,0.711114,0.766294,0.766294,0.711114,0.796157,0.639018,0.796157,0.603843,0.800000,0.600000,0.800000,-0.600000,0.796157,-0.603843,0.796157,-0.639018,0.766294,-0.711114,0.711114,-0.766294,0.639018,-0.796157,0.603843,-0.796157,0.600000,-0.800000,0.000000,-0.800000,0.000000,-0.796148,-0.078414,-0.796148,-0.232228,-0.765552,-0.377117,-0.705537,
-0.507515,-0.618408,-0.618408,-0.507515,-0.705537,-0.377117,-0.765552,-0.232228,-0.796148,-0.078414,-0.796148,0.078414,-0.765552,0.232228,-0.705537,0.377117,-0.618408,0.507515,-0.507515,0.618408,-0.377117,0.705537,-0.232228,0.765552,-0.078414,0.796148,0.000000,0.796148,0.000000,0.800000,0.600000,0.800000,0.603843,0.796157,0.603843,0.796157,$1*%
%AMFreePoly1*
4,1,37,0.000000,0.796148,0.078414,0.796148,0.232228,0.765552,0.377117,0.705537,0.507515,0.618408,0.618408,0.507515,0.705537,0.377117,0.765552,0.232228,0.796148,0.078414,0.796148,-0.078414,0.765552,-0.232228,0.705537,-0.377117,0.618408,-0.507515,0.507515,-0.618408,0.377117,-0.705537,0.232228,-0.765552,0.078414,-0.796148,0.000000,-0.796148,0.000000,-0.800000,-0.600000,-0.800000,
-0.603843,-0.796157,-0.639018,-0.796157,-0.711114,-0.766294,-0.766294,-0.711114,-0.796157,-0.639018,-0.796157,-0.603843,-0.800000,-0.600000,-0.800000,0.600000,-0.796157,0.603843,-0.796157,0.639018,-0.766294,0.711114,-0.711114,0.766294,-0.639018,0.796157,-0.603843,0.796157,-0.600000,0.800000,0.000000,0.800000,0.000000,0.796148,0.000000,0.796148,$1*%
G04 Aperture macros list end*
%ADD10C,0.200000*%
%ADD11C,2.200000*%
%ADD12C,1.850000*%
%ADD13RoundRect,0.200000X0.600000X-0.600000X0.600000X0.600000X-0.600000X0.600000X-0.600000X-0.600000X0*%
%ADD14C,1.600000*%
%ADD15FreePoly0,90.000000*%
%ADD16C,1.000000*%
%ADD17FreePoly1,90.000000*%
%ADD18C,3.200000*%
%ADD19RoundRect,0.250000X1.350000X1.350000X-1.350000X1.350000X-1.350000X-1.350000X1.350000X-1.350000X0*%
%ADD20C,1.900000*%
%ADD21RoundRect,0.250000X0.725000X-0.600000X0.725000X0.600000X-0.725000X0.600000X-0.725000X-0.600000X0*%
%ADD22O,1.950000X1.700000*%
%ADD23RoundRect,0.102000X0.825000X-0.825000X0.825000X0.825000X-0.825000X0.825000X-0.825000X-0.825000X0*%
%ADD24C,1.854000*%
%ADD25RoundRect,0.250000X-0.600000X-0.725000X0.600000X-0.725000X0.600000X0.725000X-0.600000X0.725000X0*%
%ADD26O,1.700000X1.950000*%
%ADD27RoundRect,0.250000X0.750000X-0.600000X0.750000X0.600000X-0.750000X0.600000X-0.750000X-0.600000X0*%
%ADD28O,2.000000X1.700000*%
G04 APERTURE END LIST*
D10*
X68353374Y-15746838D02*
X69020041Y-14794457D01*
X69496231Y-15746838D02*
X69496231Y-13746838D01*
X69496231Y-13746838D02*
X68734326Y-13746838D01*
X68734326Y-13746838D02*
X68543850Y-13842076D01*
X68543850Y-13842076D02*
X68448612Y-13937314D01*
X68448612Y-13937314D02*
X68353374Y-14127790D01*
X68353374Y-14127790D02*
X68353374Y-14413504D01*
X68353374Y-14413504D02*
X68448612Y-14603980D01*
X68448612Y-14603980D02*
X68543850Y-14699219D01*
X68543850Y-14699219D02*
X68734326Y-14794457D01*
X68734326Y-14794457D02*
X69496231Y-14794457D01*
X67496231Y-15746838D02*
X67496231Y-14413504D01*
X67496231Y-13746838D02*
X67591469Y-13842076D01*
X67591469Y-13842076D02*
X67496231Y-13937314D01*
X67496231Y-13937314D02*
X67400993Y-13842076D01*
X67400993Y-13842076D02*
X67496231Y-13746838D01*
X67496231Y-13746838D02*
X67496231Y-13937314D01*
X65686707Y-15651600D02*
X65877183Y-15746838D01*
X65877183Y-15746838D02*
X66258136Y-15746838D01*
X66258136Y-15746838D02*
X66448612Y-15651600D01*
X66448612Y-15651600D02*
X66543850Y-15556361D01*
X66543850Y-15556361D02*
X66639088Y-15365885D01*
X66639088Y-15365885D02*
X66639088Y-14794457D01*
X66639088Y-14794457D02*
X66543850Y-14603980D01*
X66543850Y-14603980D02*
X66448612Y-14508742D01*
X66448612Y-14508742D02*
X66258136Y-14413504D01*
X66258136Y-14413504D02*
X65877183Y-14413504D01*
X65877183Y-14413504D02*
X65686707Y-14508742D01*
X64829564Y-15746838D02*
X64829564Y-13746838D01*
X64639088Y-14984933D02*
X64067659Y-15746838D01*
X64067659Y-14413504D02*
X64829564Y-15175409D01*
X63400992Y-14413504D02*
X62924802Y-15746838D01*
X62448611Y-14413504D02*
X62924802Y-15746838D01*
X62924802Y-15746838D02*
X63115278Y-16223028D01*
X63115278Y-16223028D02*
X63210516Y-16318266D01*
X63210516Y-16318266D02*
X63400992Y-16413504D01*
D11*
X-28000000Y-1725000D03*
D12*
X-24970000Y-1425000D03*
X-24970000Y3425000D03*
D11*
X-28000000Y3725000D03*
D13*
X-28130000Y-7890000D03*
D14*
X-25590000Y-7890000D03*
D15*
X-23050000Y-7890000D03*
D16*
X-20510000Y-7890000D03*
X-17970000Y-7890000D03*
X-15430000Y-7890000D03*
X-12890000Y-7890000D03*
D15*
X-10350000Y-7890000D03*
D14*
X-7810000Y-7890000D03*
X-5270000Y-7890000D03*
X-2730000Y-7890000D03*
X-190000Y-7890000D03*
D15*
X2350000Y-7890000D03*
D14*
X4890000Y-7890000D03*
X7430000Y-7890000D03*
X9970000Y-7890000D03*
X12510000Y-7890000D03*
D15*
X15050000Y-7890000D03*
D14*
X17590000Y-7890000D03*
X20130000Y-7890000D03*
X20130000Y9890000D03*
X17590000Y9890000D03*
D17*
X15050000Y9890000D03*
D16*
X12510000Y9890000D03*
X9970000Y9890000D03*
X7430000Y9890000D03*
X4890000Y9890000D03*
D17*
X2350000Y9890000D03*
D14*
X-190000Y9890000D03*
X-2730000Y9890000D03*
X-5270000Y9890000D03*
X-7810000Y9890000D03*
D17*
X-10350000Y9890000D03*
D14*
X-12890000Y9890000D03*
X-15430000Y9890000D03*
X-17970000Y9890000D03*
X-20510000Y9890000D03*
D17*
X-23050000Y9890000D03*
D14*
X-25590000Y9890000D03*
X-28130000Y9890000D03*
X39116000Y5842000D03*
X39116000Y842000D03*
D18*
X39610000Y-5080000D03*
D19*
X54850000Y-5080000D03*
D20*
X66100000Y28000000D03*
X66100000Y33080000D03*
X63560000Y28000000D03*
X63560000Y33080000D03*
X61020000Y28000000D03*
X61020000Y33080000D03*
X58480000Y28000000D03*
X58480000Y33080000D03*
X55940000Y28000000D03*
X55940000Y33080000D03*
X53400000Y28000000D03*
X53400000Y33080000D03*
X50860000Y28000000D03*
X50860000Y33080000D03*
X48320000Y28000000D03*
X48320000Y33080000D03*
X45780000Y28000000D03*
X45780000Y33080000D03*
X43240000Y28000000D03*
X43240000Y33080000D03*
X40700000Y28000000D03*
X40700000Y33080000D03*
X38160000Y28000000D03*
X38160000Y33080000D03*
X35620000Y28000000D03*
X35620000Y33080000D03*
X33080000Y28000000D03*
X33080000Y33080000D03*
X30540000Y28000000D03*
X30540000Y33080000D03*
X28000000Y28000000D03*
X28000000Y33080000D03*
X-15800000Y33080000D03*
X-15800000Y28000000D03*
X-13260000Y33080000D03*
X-13260000Y28000000D03*
X-10720000Y33080000D03*
X-10720000Y28000000D03*
X-8180000Y33080000D03*
X-8180000Y28000000D03*
X-5640000Y33080000D03*
X-5640000Y28000000D03*
X-3100000Y33080000D03*
X-3100000Y28000000D03*
X-560000Y33080000D03*
X-560000Y28000000D03*
X1980000Y33080000D03*
X1980000Y28000000D03*
X4520000Y33080000D03*
X4520000Y28000000D03*
X7060000Y33080000D03*
X7060000Y28000000D03*
X9600000Y33080000D03*
X9600000Y28000000D03*
X12140000Y33080000D03*
X12140000Y28000000D03*
X14680000Y33080000D03*
X14680000Y28000000D03*
X17220000Y33080000D03*
X17220000Y28000000D03*
X19760000Y33080000D03*
X19760000Y28000000D03*
X22300000Y33080000D03*
X22300000Y28000000D03*
D18*
X79000000Y33000000D03*
X-24000000Y33000000D03*
X79000000Y-23000000D03*
D21*
X13445000Y-20500000D03*
D22*
X13445000Y-18000000D03*
X13445000Y-15500000D03*
D23*
X-10835000Y-16550000D03*
D24*
X-13335000Y-21550000D03*
X-15835000Y-16550000D03*
D25*
X30560000Y-11430000D03*
D26*
X33060000Y-11430000D03*
X35560000Y-11430000D03*
X38060000Y-11430000D03*
X40560000Y-11430000D03*
D25*
X30560000Y-19430000D03*
D26*
X33060000Y-19430000D03*
X35560000Y-19430000D03*
X38060000Y-19430000D03*
X40560000Y-19430000D03*
D23*
X-1945000Y-16550000D03*
D24*
X-4445000Y-21550000D03*
X-6945000Y-16550000D03*
D18*
X-24000000Y-23000000D03*
D14*
X61000000Y-6350000D03*
X66000000Y-6350000D03*
D27*
X22445000Y-20500000D03*
D28*
X22445000Y-18000000D03*
D21*
X4445000Y-20500000D03*
D22*
X4445000Y-18000000D03*
X4445000Y-15500000D03*
M02*
