M48
; DRILL file {KiCad 9.0.6} date 2026-03-15T18:55:31+0300
; FORMAT={-:-/ absolute / inch / decimal}
; #@! TF.CreationDate,2026-03-15T18:55:31+03:00
; #@! TF.GenerationSoftware,Kicad,Pcbnew,9.0.6
; #@! TF.FileFunction,Plated,1,2,PTH
FMAT,2
INCH
; #@! TA.AperFunction,Plated,PTH,ViaDrill
T1C0.0118
; #@! TA.AperFunction,Plated,PTH,ComponentDrill
T2C0.0315
; #@! TA.AperFunction,Plated,PTH,ComponentDrill
T3C0.0374
; #@! TA.AperFunction,Plated,PTH,ComponentDrill
T4C0.0394
; #@! TA.AperFunction,Plated,PTH,ComponentDrill
T5C0.0433
; #@! TA.AperFunction,Plated,PTH,ComponentDrill
T6C0.0630
%
G90
G05
T1
X-0.72Y0.79
X-0.67Y0.79
X-0.622Y0.5029
X-0.62Y0.79
X-0.5512Y0.84
X-0.49Y0.8
X-0.445Y0.8
X-0.4Y0.8
X-0.36Y0.48
X-0.34Y0.815
X-0.3Y-0.55
X-0.27Y0.795
X-0.22Y0.795
X-0.17Y0.795
X-0.16Y0.48
X-0.1124Y0.8113
X-0.045Y0.795
X0.005Y0.795
X0.0495Y0.488
X0.055Y0.795
X0.1057Y0.8338
X0.1259Y0.0559
X0.17Y-0.95
X0.18Y0.795
X0.23Y0.795
X0.28Y0.795
X0.31Y0.5022
X0.32Y-1.02
X0.32Y-1.08
X0.3324Y0.81
X0.39Y-1.02
X0.39Y-1.08
X0.41Y0.79
X0.455Y0.79
X0.505Y0.79
X0.53Y-0.95
X0.54Y0.5236
X0.5591Y0.81
X0.63Y0.79
X0.68Y0.79
X0.73Y0.79
X0.77Y0.528
X0.7791Y0.83
X0.8Y-0.43
X0.8548Y-0.4298
X0.855Y0.79
X0.905Y0.79
X0.955Y0.79
X0.9997Y0.5409
X1.015Y0.8182
X1.05Y-0.22
X1.0536Y-0.335
X1.055Y0.355
X1.055Y0.265
X1.055Y0.08
X1.055Y-0.07
X1.08Y0.79
X1.08Y-0.14
X1.125Y0.325
X1.125Y0.125
X1.125Y-0.025
X1.125Y-0.175
X1.125Y0.4729
X1.13Y0.79
X1.18Y0.79
X1.2269Y0.8236
X1.2339Y0.5939
X1.26Y0.12
X1.2825Y0.2425
X1.305Y0.79
X1.3164Y-0.36
X1.33Y0.25
X1.355Y0.79
X1.41Y0.79
X1.4165Y0.5255
X1.4315Y0.8474
X1.53Y0.79
X1.58Y0.79
X1.63Y0.79
X1.6639Y0.836
X1.67Y0.5384
X1.755Y0.79
X1.76Y-0.67
X1.76Y-0.86
X1.76Y-1.05
X1.805Y0.79
X1.855Y0.79
X1.8992Y0.5522
X1.9091Y0.81
X1.98Y0.79
X1.98Y-0.67
X1.98Y-0.86
X1.98Y-1.05
X2.03Y0.79
X2.08Y0.79
X2.12Y0.5651
X2.1372Y0.8124
X2.1436Y-0.03
X2.19Y-0.67
X2.19Y-0.86
X2.19Y-1.05
X2.21Y0.79
X2.255Y0.79
X2.31Y0.79
X2.36Y0.6018
X2.365Y0.7472
X2.38Y0.0
X2.3895Y0.0941
X2.3936Y0.2236
X2.3936Y0.17
X2.3985Y0.2749
X2.4149Y0.3385
X2.43Y0.79
X2.44Y-0.52
X2.44Y-0.65
X2.44Y-0.83
X2.44Y-1.07
X2.48Y0.79
X2.52Y-0.52
X2.52Y-0.65
X2.52Y-0.83
X2.52Y-1.07
X2.53Y0.79
X2.53Y0.14
X2.5317Y0.1759
X2.5393Y0.2185
X2.54Y0.25
X2.56Y0.0877
X2.56Y0.1898
X2.5675Y0.1388
X2.57Y0.26
X2.585Y0.7472
X2.5925Y0.6054
X2.61Y0.03
X2.65Y0.79
X2.661Y0.3203
X2.661Y0.26
X2.6701Y0.2902
X2.6708Y0.0792
X2.705Y0.79
X2.71Y0.0808
X2.73Y0.91
X2.755Y0.79
X2.767Y0.1064
X2.79Y-0.52
X2.79Y-0.65
X2.79Y-0.83
X2.79Y-1.07
X2.8047Y0.5347
X2.8172Y0.7676
X2.87Y-0.52
X2.87Y-0.65
X2.87Y-0.83
X2.87Y-1.07
X2.88Y0.14
X2.9022Y0.17
X2.9256Y0.1911
X2.945Y0.265
X2.9452Y0.2157
X2.95Y0.32
X3.07Y0.56
X3.07Y0.47
X3.07Y0.37
X3.07Y0.27
X3.07Y0.17
X3.07Y0.07
X3.07Y-0.04
X3.15Y0.56
X3.15Y0.47
X3.15Y0.37
X3.15Y0.27
X3.15Y0.17
X3.15Y0.07
X3.15Y-0.04
T2
X1.54Y0.23
X1.54Y0.0331
X2.4016Y-0.25
X2.5984Y-0.25
T3
X0.175Y-0.6102
X0.175Y-0.7087
X0.175Y-0.8071
X0.5293Y-0.6102
X0.5293Y-0.7087
X0.5293Y-0.8071
X1.2031Y-0.45
X1.2031Y-0.765
X1.3016Y-0.45
X1.3016Y-0.765
X1.4Y-0.45
X1.4Y-0.765
X1.4984Y-0.45
X1.4984Y-0.765
X1.5969Y-0.45
X1.5969Y-0.765
T4
X-1.1075Y0.3894
X-1.1075Y-0.3106
X-1.0075Y0.3894
X-1.0075Y-0.3106
X-0.9075Y0.3894
X-0.9075Y-0.3106
X-0.8075Y0.3894
X-0.7075Y0.3894
X-0.6075Y0.3894
X-0.5075Y0.3894
X-0.4075Y0.3894
X-0.4075Y-0.3106
X-0.3075Y0.3894
X-0.3075Y-0.3106
X-0.2075Y0.3894
X-0.2075Y-0.3106
X-0.1075Y0.3894
X-0.1075Y-0.3106
X-0.0075Y0.3894
X-0.0075Y-0.3106
X0.0925Y0.3894
X0.0925Y-0.3106
X0.1925Y-0.3106
X0.2925Y-0.3106
X0.3925Y-0.3106
X0.4925Y-0.3106
X0.5925Y0.3894
X0.5925Y-0.3106
X0.6925Y0.3894
X0.6925Y-0.3106
X0.7925Y0.3894
X0.7925Y-0.3106
X0.8837Y-0.7087
X0.8837Y-0.8071
T5
X-0.6234Y-0.6516
X-0.622Y1.3024
X-0.622Y1.1024
X-0.525Y-0.8484
X-0.522Y1.3024
X-0.522Y1.1024
X-0.4266Y-0.6516
X-0.422Y1.3024
X-0.422Y1.1024
X-0.322Y1.3024
X-0.322Y1.1024
X-0.2734Y-0.6516
X-0.222Y1.3024
X-0.222Y1.1024
X-0.175Y-0.8484
X-0.122Y1.3024
X-0.122Y1.1024
X-0.0766Y-0.6516
X-0.022Y1.3024
X-0.022Y1.1024
X0.078Y1.3024
X0.078Y1.1024
X0.178Y1.3024
X0.178Y1.1024
X0.278Y1.3024
X0.278Y1.1024
X0.378Y1.3024
X0.378Y1.1024
X0.478Y1.3024
X0.478Y1.1024
X0.578Y1.3024
X0.578Y1.1024
X0.678Y1.3024
X0.678Y1.1024
X0.778Y1.3024
X0.778Y1.1024
X0.878Y1.3024
X0.878Y1.1024
X1.1024Y1.3024
X1.1024Y1.1024
X1.2024Y1.3024
X1.2024Y1.1024
X1.3024Y1.3024
X1.3024Y1.1024
X1.4024Y1.3024
X1.4024Y1.1024
X1.5024Y1.3024
X1.5024Y1.1024
X1.6024Y1.3024
X1.6024Y1.1024
X1.7024Y1.3024
X1.7024Y1.1024
X1.8024Y1.3024
X1.8024Y1.1024
X1.9024Y1.3024
X1.9024Y1.1024
X2.0024Y1.3024
X2.0024Y1.1024
X2.1024Y1.3024
X2.1024Y1.1024
X2.2024Y1.3024
X2.2024Y1.1024
X2.3024Y1.3024
X2.3024Y1.1024
X2.4024Y1.3024
X2.4024Y1.1024
X2.5024Y1.3024
X2.5024Y1.1024
X2.6024Y1.3024
X2.6024Y1.1024
T6
X1.5594Y-0.2
X2.1594Y-0.2
M30
