G04 #@! TF.GenerationSoftware,KiCad,Pcbnew,9.0.6*
G04 #@! TF.CreationDate,2026-03-15T18:53:08+03:00*
G04 #@! TF.ProjectId,StaircaseLight_controller,53746169-7263-4617-9365-4c696768745f,rev?*
G04 #@! TF.SameCoordinates,Original*
G04 #@! TF.FileFunction,Soldermask,Top*
G04 #@! TF.FilePolarity,Negative*
%FSLAX46Y46*%
G04 Gerber Fmt 4.6, Leading zero omitted, Abs format (unit mm)*
G04 Created by KiCad (PCBNEW 9.0.6) date 2026-03-15 18:53:08*
%MOMM*%
%LPD*%
G01*
G04 APERTURE LIST*
G04 Aperture macros list*
%AMRoundRect*
0 Rectangle with rounded corners*
0 $1 Rounding radius*
0 $2 $3 $4 $5 $6 $7 $8 $9 X,Y pos of 4 corners*
0 Add a 4 corners polygon primitive as box body*
4,1,4,$2,$3,$4,$5,$6,$7,$8,$9,$2,$3,0*
0 Add four circle primitives for the rounded corners*
1,1,$1+$1,$2,$3*
1,1,$1+$1,$4,$5*
1,1,$1+$1,$6,$7*
1,1,$1+$1,$8,$9*
0 Add four rect primitives between the rounded corners*
20,1,$1+$1,$2,$3,$4,$5,0*
20,1,$1+$1,$4,$5,$6,$7,0*
20,1,$1+$1,$6,$7,$8,$9,0*
20,1,$1+$1,$8,$9,$2,$3,0*%
%AMFreePoly0*
4,1,37,0.800000,0.796148,0.878414,0.796148,1.032228,0.765552,1.177117,0.705537,1.307515,0.618408,1.418408,0.507515,1.505537,0.377117,1.565552,0.232228,1.596148,0.078414,1.596148,-0.078414,1.565552,-0.232228,1.505537,-0.377117,1.418408,-0.507515,1.307515,-0.618408,1.177117,-0.705537,1.032228,-0.765552,0.878414,-0.796148,0.800000,-0.796148,0.800000,-0.800000,-1.400000,-0.800000,
-1.403843,-0.796157,-1.439018,-0.796157,-1.511114,-0.766294,-1.566294,-0.711114,-1.596157,-0.639018,-1.596157,-0.603843,-1.600000,-0.600000,-1.600000,0.600000,-1.596157,0.603843,-1.596157,0.639018,-1.566294,0.711114,-1.511114,0.766294,-1.439018,0.796157,-1.403843,0.796157,-1.400000,0.800000,0.800000,0.800000,0.800000,0.796148,0.800000,0.796148,$1*%
%AMFreePoly1*
4,1,37,1.403843,0.796157,1.439018,0.796157,1.511114,0.766294,1.566294,0.711114,1.596157,0.639018,1.596157,0.603843,1.600000,0.600000,1.600000,-0.600000,1.596157,-0.603843,1.596157,-0.639018,1.566294,-0.711114,1.511114,-0.766294,1.439018,-0.796157,1.403843,-0.796157,1.400000,-0.800000,-0.800000,-0.800000,-0.800000,-0.796148,-0.878414,-0.796148,-1.032228,-0.765552,-1.177117,-0.705537,
-1.307515,-0.618408,-1.418408,-0.507515,-1.505537,-0.377117,-1.565552,-0.232228,-1.596148,-0.078414,-1.596148,0.078414,-1.565552,0.232228,-1.505537,0.377117,-1.418408,0.507515,-1.307515,0.618408,-1.177117,0.705537,-1.032228,0.765552,-0.878414,0.796148,-0.800000,0.796148,-0.800000,0.800000,1.400000,0.800000,1.403843,0.796157,1.403843,0.796157,$1*%
%AMFreePoly2*
4,1,37,0.603843,0.796157,0.639018,0.796157,0.711114,0.766294,0.766294,0.711114,0.796157,0.639018,0.796157,0.603843,0.800000,0.600000,0.800000,-0.600000,0.796157,-0.603843,0.796157,-0.639018,0.766294,-0.711114,0.711114,-0.766294,0.639018,-0.796157,0.603843,-0.796157,0.600000,-0.800000,0.000000,-0.800000,0.000000,-0.796148,-0.078414,-0.796148,-0.232228,-0.765552,-0.377117,-0.705537,
-0.507515,-0.618408,-0.618408,-0.507515,-0.705537,-0.377117,-0.765552,-0.232228,-0.796148,-0.078414,-0.796148,0.078414,-0.765552,0.232228,-0.705537,0.377117,-0.618408,0.507515,-0.507515,0.618408,-0.377117,0.705537,-0.232228,0.765552,-0.078414,0.796148,0.000000,0.796148,0.000000,0.800000,0.600000,0.800000,0.603843,0.796157,0.603843,0.796157,$1*%
%AMFreePoly3*
4,1,37,0.000000,0.796148,0.078414,0.796148,0.232228,0.765552,0.377117,0.705537,0.507515,0.618408,0.618408,0.507515,0.705537,0.377117,0.765552,0.232228,0.796148,0.078414,0.796148,-0.078414,0.765552,-0.232228,0.705537,-0.377117,0.618408,-0.507515,0.507515,-0.618408,0.377117,-0.705537,0.232228,-0.765552,0.078414,-0.796148,0.000000,-0.796148,0.000000,-0.800000,-0.600000,-0.800000,
-0.603843,-0.796157,-0.639018,-0.796157,-0.711114,-0.766294,-0.766294,-0.711114,-0.796157,-0.639018,-0.796157,-0.603843,-0.800000,-0.600000,-0.800000,0.600000,-0.796157,0.603843,-0.796157,0.639018,-0.766294,0.711114,-0.711114,0.766294,-0.639018,0.796157,-0.603843,0.796157,-0.600000,0.800000,0.000000,0.800000,0.000000,0.796148,0.000000,0.796148,$1*%
%AMFreePoly4*
4,1,6,1.000000,0.000000,0.500000,-0.750000,-0.500000,-0.750000,-0.500000,0.750000,0.500000,0.750000,1.000000,0.000000,1.000000,0.000000,$1*%
G04 Aperture macros list end*
%ADD10C,2.200000*%
%ADD11C,1.850000*%
%ADD12FreePoly0,90.000000*%
%ADD13RoundRect,0.200000X0.600000X-0.600000X0.600000X0.600000X-0.600000X0.600000X-0.600000X-0.600000X0*%
%ADD14RoundRect,0.800000X0.000010X-0.800000X0.000010X0.800000X-0.000010X0.800000X-0.000010X-0.800000X0*%
%ADD15C,1.600000*%
%ADD16FreePoly1,90.000000*%
%ADD17FreePoly2,90.000000*%
%ADD18C,1.000000*%
%ADD19FreePoly3,90.000000*%
%ADD20C,3.200000*%
%ADD21RoundRect,0.250000X1.350000X1.350000X-1.350000X1.350000X-1.350000X-1.350000X1.350000X-1.350000X0*%
%ADD22RoundRect,0.162500X0.162500X-0.825000X0.162500X0.825000X-0.162500X0.825000X-0.162500X-0.825000X0*%
%ADD23C,1.900000*%
%ADD24RoundRect,0.237500X-0.287500X-0.237500X0.287500X-0.237500X0.287500X0.237500X-0.287500X0.237500X0*%
%ADD25RoundRect,0.250000X0.725000X-0.600000X0.725000X0.600000X-0.725000X0.600000X-0.725000X-0.600000X0*%
%ADD26O,1.950000X1.700000*%
%ADD27RoundRect,0.160000X-0.197500X-0.160000X0.197500X-0.160000X0.197500X0.160000X-0.197500X0.160000X0*%
%ADD28RoundRect,0.102000X0.825000X-0.825000X0.825000X0.825000X-0.825000X0.825000X-0.825000X-0.825000X0*%
%ADD29C,1.854000*%
%ADD30RoundRect,0.160000X0.197500X0.160000X-0.197500X0.160000X-0.197500X-0.160000X0.197500X-0.160000X0*%
%ADD31FreePoly4,0.000000*%
%ADD32FreePoly4,180.000000*%
%ADD33RoundRect,0.150000X-0.587500X-0.150000X0.587500X-0.150000X0.587500X0.150000X-0.587500X0.150000X0*%
%ADD34RoundRect,0.250000X-0.600000X-0.725000X0.600000X-0.725000X0.600000X0.725000X-0.600000X0.725000X0*%
%ADD35O,1.700000X1.950000*%
%ADD36R,1.500000X2.200000*%
%ADD37C,2.000000*%
%ADD38RoundRect,0.250000X-0.300000X2.050000X-0.300000X-2.050000X0.300000X-2.050000X0.300000X2.050000X0*%
%ADD39RoundRect,0.250002X-5.149998X4.449998X-5.149998X-4.449998X5.149998X-4.449998X5.149998X4.449998X0*%
%ADD40RoundRect,0.102000X1.000000X-3.000000X1.000000X3.000000X-1.000000X3.000000X-1.000000X-3.000000X0*%
%ADD41RoundRect,0.102000X1.000000X-1.750000X1.000000X1.750000X-1.000000X1.750000X-1.000000X-1.750000X0*%
%ADD42RoundRect,0.100000X-0.637500X-0.100000X0.637500X-0.100000X0.637500X0.100000X-0.637500X0.100000X0*%
%ADD43RoundRect,0.250000X0.750000X-0.600000X0.750000X0.600000X-0.750000X0.600000X-0.750000X-0.600000X0*%
%ADD44O,2.000000X1.700000*%
G04 APERTURE END LIST*
G36*
X54745000Y9894000D02*
G01*
X59745000Y9894000D01*
X59745000Y8394000D01*
X54745000Y8394000D01*
X54745000Y9894000D01*
G37*
G36*
X54745000Y7608000D02*
G01*
X59745000Y7608000D01*
X59745000Y6108000D01*
X54745000Y6108000D01*
X54745000Y7608000D01*
G37*
G36*
X54745000Y12180000D02*
G01*
X59745000Y12180000D01*
X59745000Y10680000D01*
X54745000Y10680000D01*
X54745000Y12180000D01*
G37*
G36*
X54745000Y5322000D02*
G01*
X59745000Y5322000D01*
X59745000Y3822000D01*
X54745000Y3822000D01*
X54745000Y5322000D01*
G37*
G36*
X54745000Y3036000D02*
G01*
X59745000Y3036000D01*
X59745000Y1536000D01*
X54745000Y1536000D01*
X54745000Y3036000D01*
G37*
G36*
X54745000Y750000D02*
G01*
X59745000Y750000D01*
X59745000Y-750000D01*
X54745000Y-750000D01*
X54745000Y750000D01*
G37*
D10*
X-28000000Y-1725000D03*
D11*
X-24970000Y-1425000D03*
X-24970000Y3425000D03*
D10*
X-28000000Y3725000D03*
D12*
X-28130000Y-8690000D03*
D13*
X-28130000Y-7890000D03*
D14*
X-25590000Y-8690000D03*
D15*
X-25590000Y-7890000D03*
D16*
X-23050000Y-8690000D03*
D17*
X-23050000Y-7890000D03*
D18*
X-20510000Y-7890000D03*
X-17970000Y-7890000D03*
X-15430000Y-7890000D03*
X-12890000Y-7890000D03*
D16*
X-10350000Y-8690000D03*
D17*
X-10350000Y-7890000D03*
D14*
X-7810000Y-8690000D03*
D15*
X-7810000Y-7890000D03*
D14*
X-5270000Y-8690000D03*
D15*
X-5270000Y-7890000D03*
D14*
X-2730000Y-8690000D03*
D15*
X-2730000Y-7890000D03*
D14*
X-190000Y-8690000D03*
D15*
X-190000Y-7890000D03*
D16*
X2350000Y-8690000D03*
D17*
X2350000Y-7890000D03*
D14*
X4890000Y-8690000D03*
D15*
X4890000Y-7890000D03*
D14*
X7430000Y-8690000D03*
D15*
X7430000Y-7890000D03*
D14*
X9970000Y-8690000D03*
D15*
X9970000Y-7890000D03*
D14*
X12510000Y-8690000D03*
D15*
X12510000Y-7890000D03*
D16*
X15050000Y-8690000D03*
D17*
X15050000Y-7890000D03*
D14*
X17590000Y-8690000D03*
D15*
X17590000Y-7890000D03*
D14*
X20130000Y-8690000D03*
D15*
X20130000Y-7890000D03*
X20130000Y9890000D03*
D14*
X20130000Y10690000D03*
D15*
X17590000Y9890000D03*
D14*
X17590000Y10690000D03*
D19*
X15050000Y9890000D03*
D12*
X15050000Y10690000D03*
D18*
X12510000Y9890000D03*
X9970000Y9890000D03*
X7430000Y9890000D03*
X4890000Y9890000D03*
D19*
X2350000Y9890000D03*
D12*
X2350000Y10690000D03*
D15*
X-190000Y9890000D03*
D14*
X-190000Y10690000D03*
D15*
X-2730000Y9890000D03*
D14*
X-2730000Y10690000D03*
D15*
X-5270000Y9890000D03*
D14*
X-5270000Y10690000D03*
D15*
X-7810000Y9890000D03*
D14*
X-7810000Y10690000D03*
D19*
X-10350000Y9890000D03*
D12*
X-10350000Y10690000D03*
D15*
X-12890000Y9890000D03*
D14*
X-12890000Y10690000D03*
D15*
X-15430000Y9890000D03*
D14*
X-15430000Y10690000D03*
D15*
X-17970000Y9890000D03*
D14*
X-17970000Y10690000D03*
D15*
X-20510000Y9890000D03*
D14*
X-20510000Y10690000D03*
D19*
X-23050000Y9890000D03*
D12*
X-23050000Y10690000D03*
D15*
X-25590000Y9890000D03*
D14*
X-25590000Y10690000D03*
D15*
X-28130000Y9890000D03*
D14*
X-28130000Y10690000D03*
D15*
X39116000Y5842000D03*
X39116000Y842000D03*
D20*
X39610000Y-5080000D03*
D21*
X54850000Y-5080000D03*
D22*
X-19050000Y14607500D03*
X-17780000Y14607500D03*
X-16510000Y14607500D03*
X-15240000Y14607500D03*
X-15240000Y19682500D03*
X-16510000Y19682500D03*
X-17780000Y19682500D03*
X-19050000Y19682500D03*
X26670000Y14607500D03*
X27940000Y14607500D03*
X29210000Y14607500D03*
X30480000Y14607500D03*
X30480000Y19682500D03*
X29210000Y19682500D03*
X27940000Y19682500D03*
X26670000Y19682500D03*
X-13335000Y14607500D03*
X-12065000Y14607500D03*
X-10795000Y14607500D03*
X-9525000Y14607500D03*
X-9525000Y19682500D03*
X-10795000Y19682500D03*
X-12065000Y19682500D03*
X-13335000Y19682500D03*
X-7620000Y14607500D03*
X-6350000Y14607500D03*
X-5080000Y14607500D03*
X-3810000Y14607500D03*
X-3810000Y19682500D03*
X-5080000Y19682500D03*
X-6350000Y19682500D03*
X-7620000Y19682500D03*
X55245000Y14607500D03*
X56515000Y14607500D03*
X57785000Y14607500D03*
X59055000Y14607500D03*
X59055000Y19682500D03*
X57785000Y19682500D03*
X56515000Y19682500D03*
X55245000Y19682500D03*
X20955000Y14607500D03*
X22225000Y14607500D03*
X23495000Y14607500D03*
X24765000Y14607500D03*
X24765000Y19682500D03*
X23495000Y19682500D03*
X22225000Y19682500D03*
X20955000Y19682500D03*
X9525000Y14607500D03*
X10795000Y14607500D03*
X12065000Y14607500D03*
X13335000Y14607500D03*
X13335000Y19682500D03*
X12065000Y19682500D03*
X10795000Y19682500D03*
X9525000Y19682500D03*
X49530000Y14607500D03*
X50800000Y14607500D03*
X52070000Y14607500D03*
X53340000Y14607500D03*
X53340000Y19682500D03*
X52070000Y19682500D03*
X50800000Y19682500D03*
X49530000Y19682500D03*
X66675000Y14607500D03*
X67945000Y14607500D03*
X69215000Y14607500D03*
X70485000Y14607500D03*
X70485000Y19682500D03*
X69215000Y19682500D03*
X67945000Y19682500D03*
X66675000Y19682500D03*
X43815000Y14607500D03*
X45085000Y14607500D03*
X46355000Y14607500D03*
X47625000Y14607500D03*
X47625000Y19682500D03*
X46355000Y19682500D03*
X45085000Y19682500D03*
X43815000Y19682500D03*
X32385000Y14607500D03*
X33655000Y14607500D03*
X34925000Y14607500D03*
X36195000Y14607500D03*
X36195000Y19682500D03*
X34925000Y19682500D03*
X33655000Y19682500D03*
X32385000Y19682500D03*
X3810000Y14607500D03*
X5080000Y14607500D03*
X6350000Y14607500D03*
X7620000Y14607500D03*
X7620000Y19682500D03*
X6350000Y19682500D03*
X5080000Y19682500D03*
X3810000Y19682500D03*
X38100000Y14607500D03*
X39370000Y14607500D03*
X40640000Y14607500D03*
X41910000Y14607500D03*
X41910000Y19682500D03*
X40640000Y19682500D03*
X39370000Y19682500D03*
X38100000Y19682500D03*
X60960000Y14607500D03*
X62230000Y14607500D03*
X63500000Y14607500D03*
X64770000Y14607500D03*
X64770000Y19682500D03*
X63500000Y19682500D03*
X62230000Y19682500D03*
X60960000Y19682500D03*
X-1905000Y14607500D03*
X-635000Y14607500D03*
X635000Y14607500D03*
X1905000Y14607500D03*
X1905000Y19682500D03*
X635000Y19682500D03*
X-635000Y19682500D03*
X-1905000Y19682500D03*
X15240000Y14607500D03*
X16510000Y14607500D03*
X17780000Y14607500D03*
X19050000Y14607500D03*
X19050000Y19682500D03*
X17780000Y19682500D03*
X16510000Y19682500D03*
X15240000Y19682500D03*
D23*
X66100000Y28000000D03*
X66100000Y33080000D03*
X63560000Y28000000D03*
X63560000Y33080000D03*
X61020000Y28000000D03*
X61020000Y33080000D03*
X58480000Y28000000D03*
X58480000Y33080000D03*
X55940000Y28000000D03*
X55940000Y33080000D03*
X53400000Y28000000D03*
X53400000Y33080000D03*
X50860000Y28000000D03*
X50860000Y33080000D03*
X48320000Y28000000D03*
X48320000Y33080000D03*
X45780000Y28000000D03*
X45780000Y33080000D03*
X43240000Y28000000D03*
X43240000Y33080000D03*
X40700000Y28000000D03*
X40700000Y33080000D03*
X38160000Y28000000D03*
X38160000Y33080000D03*
X35620000Y28000000D03*
X35620000Y33080000D03*
X33080000Y28000000D03*
X33080000Y33080000D03*
X30540000Y28000000D03*
X30540000Y33080000D03*
X28000000Y28000000D03*
X28000000Y33080000D03*
D24*
X-3570000Y24130000D03*
X-5320000Y24130000D03*
D23*
X-15800000Y33080000D03*
X-15800000Y28000000D03*
X-13260000Y33080000D03*
X-13260000Y28000000D03*
X-10720000Y33080000D03*
X-10720000Y28000000D03*
X-8180000Y33080000D03*
X-8180000Y28000000D03*
X-5640000Y33080000D03*
X-5640000Y28000000D03*
X-3100000Y33080000D03*
X-3100000Y28000000D03*
X-560000Y33080000D03*
X-560000Y28000000D03*
X1980000Y33080000D03*
X1980000Y28000000D03*
X4520000Y33080000D03*
X4520000Y28000000D03*
X7060000Y33080000D03*
X7060000Y28000000D03*
X9600000Y33080000D03*
X9600000Y28000000D03*
X12140000Y33080000D03*
X12140000Y28000000D03*
X14680000Y33080000D03*
X14680000Y28000000D03*
X17220000Y33080000D03*
X17220000Y28000000D03*
X19760000Y33080000D03*
X19760000Y28000000D03*
X22300000Y33080000D03*
X22300000Y28000000D03*
D20*
X79000000Y33000000D03*
X-24000000Y33000000D03*
D24*
X38495000Y24130000D03*
X40245000Y24130000D03*
D20*
X79000000Y-23000000D03*
D25*
X13445000Y-20500000D03*
D26*
X13445000Y-18000000D03*
X13445000Y-15500000D03*
D27*
X26659000Y8001000D03*
X27854000Y8001000D03*
D28*
X-10835000Y-16550000D03*
D29*
X-13335000Y-21550000D03*
X-15835000Y-16550000D03*
D27*
X37500Y22225000D03*
X1232500Y22225000D03*
D24*
X-240000Y24130000D03*
X1510000Y24130000D03*
D30*
X27854000Y1143000D03*
X26659000Y1143000D03*
D24*
X9920000Y24130000D03*
X11670000Y24130000D03*
D31*
X55245000Y9144000D03*
D32*
X59245000Y9144000D03*
D27*
X5117500Y22225000D03*
X6312500Y22225000D03*
D31*
X55245000Y6858000D03*
D32*
X59245000Y6858000D03*
D33*
X29875000Y3109000D03*
X29875000Y1209000D03*
X31750000Y2159000D03*
D30*
X-8292500Y-13335000D03*
X-9487500Y-13335000D03*
D24*
X4840000Y24130000D03*
X6590000Y24130000D03*
D30*
X27854000Y-6477000D03*
X26659000Y-6477000D03*
D34*
X30560000Y-11430000D03*
D35*
X33060000Y-11430000D03*
X35560000Y-11430000D03*
X38060000Y-11430000D03*
X40560000Y-11430000D03*
D36*
X51968000Y2286000D03*
X45568000Y2286000D03*
D27*
X15277500Y22225000D03*
X16472500Y22225000D03*
D24*
X63895000Y24130000D03*
X65645000Y24130000D03*
D33*
X29875000Y7935000D03*
X29875000Y6035000D03*
X31750000Y6985000D03*
D27*
X26659000Y-4487000D03*
X27854000Y-4487000D03*
D33*
X29875000Y11745000D03*
X29875000Y9845000D03*
X31750000Y10795000D03*
D27*
X-15202500Y22225000D03*
X-14007500Y22225000D03*
X43852500Y22225000D03*
X45047500Y22225000D03*
D24*
X33415000Y24130000D03*
X35165000Y24130000D03*
D34*
X30560000Y-19430000D03*
D35*
X33060000Y-19430000D03*
X35560000Y-19430000D03*
X38060000Y-19430000D03*
X40560000Y-19430000D03*
D33*
X29875000Y-701000D03*
X29875000Y-2601000D03*
X31750000Y-1651000D03*
D27*
X-5042500Y22225000D03*
X-3847500Y22225000D03*
X59092500Y22225000D03*
X60287500Y22225000D03*
X33692500Y22225000D03*
X34887500Y22225000D03*
D28*
X-1945000Y-16550000D03*
D29*
X-4445000Y-21550000D03*
X-6945000Y-16550000D03*
D27*
X26659000Y11811000D03*
X27854000Y11811000D03*
D37*
X70612000Y-8128000D03*
D27*
X48932500Y22225000D03*
X50127500Y22225000D03*
D30*
X27854000Y-2667000D03*
X26659000Y-2667000D03*
D33*
X29875000Y-4511000D03*
X29875000Y-6411000D03*
X31750000Y-5461000D03*
D27*
X38772500Y22225000D03*
X39967500Y22225000D03*
D24*
X15000000Y24130000D03*
X16750000Y24130000D03*
D30*
X25362500Y-8890000D03*
X24167500Y-8890000D03*
D27*
X-10160000Y22225000D03*
X-8965000Y22225000D03*
D38*
X53565000Y-12670000D03*
X51865000Y-12670000D03*
X50165000Y-12670000D03*
D39*
X50165000Y-21820000D03*
D38*
X48465000Y-12670000D03*
X46765000Y-12670000D03*
D27*
X-9487500Y-12065000D03*
X-8292500Y-12065000D03*
X26659000Y-635000D03*
X27854000Y-635000D03*
D24*
X48655000Y24130000D03*
X50405000Y24130000D03*
D31*
X55245000Y11430000D03*
D32*
X59245000Y11430000D03*
D31*
X55245000Y4572000D03*
D32*
X59245000Y4572000D03*
D37*
X74676000Y-3810000D03*
D20*
X-24000000Y-23000000D03*
D37*
X78486000Y-3810000D03*
D27*
X28612500Y22225000D03*
X29807500Y22225000D03*
D31*
X55245000Y2286000D03*
D32*
X59245000Y2286000D03*
D24*
X-15480000Y24130000D03*
X-13730000Y24130000D03*
X20080000Y24130000D03*
X21830000Y24130000D03*
D40*
X67945000Y-24130000D03*
D41*
X67945000Y-14880000D03*
D40*
X71945000Y-24130000D03*
D41*
X71945000Y-14880000D03*
D24*
X-10437500Y24130000D03*
X-8687500Y24130000D03*
D15*
X61000000Y-6350000D03*
X66000000Y-6350000D03*
D30*
X27854000Y5969000D03*
X26659000Y5969000D03*
D24*
X58815000Y24130000D03*
X60565000Y24130000D03*
D37*
X70612000Y-3810000D03*
D40*
X59055000Y-24130000D03*
D41*
X59055000Y-14880000D03*
D40*
X63055000Y-24130000D03*
D41*
X63055000Y-14880000D03*
D24*
X53735000Y24130000D03*
X55485000Y24130000D03*
D27*
X54012500Y22225000D03*
X55207500Y22225000D03*
D24*
X28335000Y24130000D03*
X30085000Y24130000D03*
D42*
X66352500Y9940000D03*
X66352500Y9290000D03*
X66352500Y8640000D03*
X66352500Y7990000D03*
X66352500Y7340000D03*
X66352500Y6690000D03*
X66352500Y6040000D03*
X66352500Y5390000D03*
X66352500Y4740000D03*
X66352500Y4090000D03*
X66352500Y3440000D03*
X66352500Y2790000D03*
X66352500Y2140000D03*
X66352500Y1490000D03*
X72077500Y1490000D03*
X72077500Y2140000D03*
X72077500Y2790000D03*
X72077500Y3440000D03*
X72077500Y4090000D03*
X72077500Y4740000D03*
X72077500Y5390000D03*
X72077500Y6040000D03*
X72077500Y6690000D03*
X72077500Y7340000D03*
X72077500Y7990000D03*
X72077500Y8640000D03*
X72077500Y9290000D03*
X72077500Y9940000D03*
D27*
X20357500Y22225000D03*
X21552500Y22225000D03*
D24*
X43575000Y24130000D03*
X45325000Y24130000D03*
D31*
X55245000Y0D03*
D32*
X59245000Y0D03*
D27*
X10197500Y22225000D03*
X11392500Y22225000D03*
X26659000Y3175000D03*
X27854000Y3175000D03*
D30*
X27854000Y9779000D03*
X26659000Y9779000D03*
D43*
X22445000Y-20500000D03*
D44*
X22445000Y-18000000D03*
D25*
X4445000Y-20500000D03*
D26*
X4445000Y-18000000D03*
X4445000Y-15500000D03*
D27*
X64172500Y22225000D03*
X65367500Y22225000D03*
M02*
